<mxfile host="051d1ce5-bc77-4643-a519-3df00a169aa4" modified="2020-09-14T13:25:32.577Z" agent="5.0 (Windows NT 10.0; Win64; x64) AppleWebKit/537.36 (KHTML, like Gecko) Code/1.49.0 Chrome/83.0.4103.122 Electron/9.2.1 Safari/537.36" etag="4pW20biXnxC3-fdS6igb" version="13.1.3">
    <diagram id="C5RBs43oDa-KdzZeNtuy" name="Page-1">
        <mxGraphModel dx="1120" dy="568" grid="1" gridSize="10" guides="1" tooltips="1" connect="1" arrows="1" fold="1" page="1" pageScale="1" pageWidth="827" pageHeight="1169" math="0" shadow="0">
            <root>
                <mxCell id="WIyWlLk6GJQsqaUBKTNV-0"/>
                <mxCell id="WIyWlLk6GJQsqaUBKTNV-1" parent="WIyWlLk6GJQsqaUBKTNV-0"/>
                <mxCell id="pPV86ePXEddxtqQ-xWxx-2" value="" style="edgeStyle=orthogonalEdgeStyle;rounded=0;orthogonalLoop=1;jettySize=auto;html=1;" parent="WIyWlLk6GJQsqaUBKTNV-1" source="pPV86ePXEddxtqQ-xWxx-0" target="pPV86ePXEddxtqQ-xWxx-1" edge="1">
                    <mxGeometry relative="1" as="geometry"/>
                </mxCell>
                <mxCell id="pPV86ePXEddxtqQ-xWxx-0" value="start" style="rounded=1;whiteSpace=wrap;html=1;" parent="WIyWlLk6GJQsqaUBKTNV-1" vertex="1">
                    <mxGeometry x="354" width="120" height="60" as="geometry"/>
                </mxCell>
                <mxCell id="pPV86ePXEddxtqQ-xWxx-4" value="" style="edgeStyle=orthogonalEdgeStyle;rounded=0;orthogonalLoop=1;jettySize=auto;html=1;" parent="WIyWlLk6GJQsqaUBKTNV-1" source="pPV86ePXEddxtqQ-xWxx-1" target="pPV86ePXEddxtqQ-xWxx-3" edge="1">
                    <mxGeometry relative="1" as="geometry"/>
                </mxCell>
                <mxCell id="pPV86ePXEddxtqQ-xWxx-1" value="inndata antall deltakere" style="shape=parallelogram;perimeter=parallelogramPerimeter;whiteSpace=wrap;html=1;fixedSize=1;" parent="WIyWlLk6GJQsqaUBKTNV-1" vertex="1">
                    <mxGeometry x="354" y="80" width="120" height="60" as="geometry"/>
                </mxCell>
                <mxCell id="pPV86ePXEddxtqQ-xWxx-96" style="edgeStyle=orthogonalEdgeStyle;rounded=0;orthogonalLoop=1;jettySize=auto;html=1;exitX=0.5;exitY=1;exitDx=0;exitDy=0;" parent="WIyWlLk6GJQsqaUBKTNV-1" source="pPV86ePXEddxtqQ-xWxx-3" target="pPV86ePXEddxtqQ-xWxx-84" edge="1">
                    <mxGeometry relative="1" as="geometry"/>
                </mxCell>
                <mxCell id="pPV86ePXEddxtqQ-xWxx-3" value="deklarerer og tilordne variabler" style="rounded=0;whiteSpace=wrap;html=1;" parent="WIyWlLk6GJQsqaUBKTNV-1" vertex="1">
                    <mxGeometry x="354" y="160" width="120" height="60" as="geometry"/>
                </mxCell>
                <mxCell id="pPV86ePXEddxtqQ-xWxx-104" style="edgeStyle=orthogonalEdgeStyle;rounded=0;orthogonalLoop=1;jettySize=auto;html=1;exitX=0.5;exitY=1;exitDx=0;exitDy=0;" parent="WIyWlLk6GJQsqaUBKTNV-1" source="pPV86ePXEddxtqQ-xWxx-21" target="pPV86ePXEddxtqQ-xWxx-70" edge="1">
                    <mxGeometry relative="1" as="geometry"/>
                </mxCell>
                <mxCell id="pPV86ePXEddxtqQ-xWxx-21" value="beregn summen" style="rounded=0;whiteSpace=wrap;html=1;" parent="WIyWlLk6GJQsqaUBKTNV-1" vertex="1">
                    <mxGeometry x="354" y="1150" width="120" height="60" as="geometry"/>
                </mxCell>
                <mxCell id="pPV86ePXEddxtqQ-xWxx-26" value="fin&lt;br&gt;" style="rounded=1;whiteSpace=wrap;html=1;" parent="WIyWlLk6GJQsqaUBKTNV-1" vertex="1">
                    <mxGeometry x="354" y="1570" width="120" height="60" as="geometry"/>
                </mxCell>
                <mxCell id="pPV86ePXEddxtqQ-xWxx-47" style="edgeStyle=orthogonalEdgeStyle;rounded=0;orthogonalLoop=1;jettySize=auto;html=1;exitX=0;exitY=0.5;exitDx=0;exitDy=0;entryX=0.5;entryY=0;entryDx=0;entryDy=0;fillColor=#647687;strokeColor=#314354;" parent="WIyWlLk6GJQsqaUBKTNV-1" source="pPV86ePXEddxtqQ-xWxx-30" target="pPV86ePXEddxtqQ-xWxx-37" edge="1">
                    <mxGeometry relative="1" as="geometry"/>
                </mxCell>
                <mxCell id="pPV86ePXEddxtqQ-xWxx-48" style="edgeStyle=orthogonalEdgeStyle;rounded=0;orthogonalLoop=1;jettySize=auto;html=1;exitX=1;exitY=0.5;exitDx=0;exitDy=0;entryX=0.5;entryY=0;entryDx=0;entryDy=0;fillColor=#647687;strokeColor=#314354;" parent="WIyWlLk6GJQsqaUBKTNV-1" source="pPV86ePXEddxtqQ-xWxx-30" target="pPV86ePXEddxtqQ-xWxx-34" edge="1">
                    <mxGeometry relative="1" as="geometry"/>
                </mxCell>
                <mxCell id="pPV86ePXEddxtqQ-xWxx-30" value="&amp;gt;30?" style="rhombus;whiteSpace=wrap;html=1;fillColor=#647687;strokeColor=#314354;fontColor=#ffffff;" parent="WIyWlLk6GJQsqaUBKTNV-1" vertex="1">
                    <mxGeometry x="374" y="690" width="80" height="80" as="geometry"/>
                </mxCell>
                <mxCell id="pPV86ePXEddxtqQ-xWxx-45" style="edgeStyle=orthogonalEdgeStyle;rounded=0;orthogonalLoop=1;jettySize=auto;html=1;exitX=1;exitY=0.5;exitDx=0;exitDy=0;entryX=0.5;entryY=0;entryDx=0;entryDy=0;fillColor=#647687;strokeColor=#314354;" parent="WIyWlLk6GJQsqaUBKTNV-1" source="pPV86ePXEddxtqQ-xWxx-34" target="pPV86ePXEddxtqQ-xWxx-35" edge="1">
                    <mxGeometry relative="1" as="geometry"/>
                </mxCell>
                <mxCell id="pPV86ePXEddxtqQ-xWxx-49" style="edgeStyle=orthogonalEdgeStyle;rounded=0;orthogonalLoop=1;jettySize=auto;html=1;exitX=0;exitY=0.5;exitDx=0;exitDy=0;entryX=0.5;entryY=0;entryDx=0;entryDy=0;fillColor=#647687;strokeColor=#314354;" parent="WIyWlLk6GJQsqaUBKTNV-1" source="pPV86ePXEddxtqQ-xWxx-34" target="pPV86ePXEddxtqQ-xWxx-46" edge="1">
                    <mxGeometry relative="1" as="geometry"/>
                </mxCell>
                <mxCell id="pPV86ePXEddxtqQ-xWxx-34" value="&amp;gt;=20" style="rhombus;whiteSpace=wrap;html=1;fillColor=#647687;strokeColor=#314354;fontColor=#ffffff;" parent="WIyWlLk6GJQsqaUBKTNV-1" vertex="1">
                    <mxGeometry x="480" y="770" width="80" height="80" as="geometry"/>
                </mxCell>
                <mxCell id="pPV86ePXEddxtqQ-xWxx-43" style="edgeStyle=orthogonalEdgeStyle;rounded=0;orthogonalLoop=1;jettySize=auto;html=1;exitX=0;exitY=0.5;exitDx=0;exitDy=0;entryX=0.5;entryY=0;entryDx=0;entryDy=0;fillColor=#647687;strokeColor=#314354;" parent="WIyWlLk6GJQsqaUBKTNV-1" source="pPV86ePXEddxtqQ-xWxx-35" target="pPV86ePXEddxtqQ-xWxx-38" edge="1">
                    <mxGeometry relative="1" as="geometry"/>
                </mxCell>
                <mxCell id="pPV86ePXEddxtqQ-xWxx-44" style="edgeStyle=orthogonalEdgeStyle;rounded=0;orthogonalLoop=1;jettySize=auto;html=1;exitX=1;exitY=0.5;exitDx=0;exitDy=0;entryX=0.5;entryY=0;entryDx=0;entryDy=0;fillColor=#647687;strokeColor=#314354;" parent="WIyWlLk6GJQsqaUBKTNV-1" source="pPV86ePXEddxtqQ-xWxx-35" target="pPV86ePXEddxtqQ-xWxx-36" edge="1">
                    <mxGeometry relative="1" as="geometry"/>
                </mxCell>
                <mxCell id="pPV86ePXEddxtqQ-xWxx-35" value="&amp;gt;=10" style="rhombus;whiteSpace=wrap;html=1;fillColor=#647687;strokeColor=#314354;fontColor=#ffffff;" parent="WIyWlLk6GJQsqaUBKTNV-1" vertex="1">
                    <mxGeometry x="580" y="850" width="80" height="80" as="geometry"/>
                </mxCell>
                <mxCell id="pPV86ePXEddxtqQ-xWxx-41" style="edgeStyle=orthogonalEdgeStyle;rounded=0;orthogonalLoop=1;jettySize=auto;html=1;exitX=0;exitY=0.5;exitDx=0;exitDy=0;entryX=0.5;entryY=0;entryDx=0;entryDy=0;fillColor=#647687;strokeColor=#314354;" parent="WIyWlLk6GJQsqaUBKTNV-1" source="pPV86ePXEddxtqQ-xWxx-36" target="pPV86ePXEddxtqQ-xWxx-39" edge="1">
                    <mxGeometry relative="1" as="geometry"/>
                </mxCell>
                <mxCell id="pPV86ePXEddxtqQ-xWxx-42" style="edgeStyle=orthogonalEdgeStyle;rounded=0;orthogonalLoop=1;jettySize=auto;html=1;exitX=1;exitY=0.5;exitDx=0;exitDy=0;entryX=0.592;entryY=0;entryDx=0;entryDy=0;entryPerimeter=0;fillColor=#647687;strokeColor=#314354;" parent="WIyWlLk6GJQsqaUBKTNV-1" source="pPV86ePXEddxtqQ-xWxx-36" target="pPV86ePXEddxtqQ-xWxx-40" edge="1">
                    <mxGeometry relative="1" as="geometry"/>
                </mxCell>
                <mxCell id="pPV86ePXEddxtqQ-xWxx-36" value="&amp;gt;=1" style="rhombus;whiteSpace=wrap;html=1;fillColor=#647687;strokeColor=#314354;fontColor=#ffffff;" parent="WIyWlLk6GJQsqaUBKTNV-1" vertex="1">
                    <mxGeometry x="680" y="930" width="80" height="80" as="geometry"/>
                </mxCell>
                <mxCell id="pPV86ePXEddxtqQ-xWxx-50" style="edgeStyle=orthogonalEdgeStyle;rounded=0;orthogonalLoop=1;jettySize=auto;html=1;exitX=0.5;exitY=1;exitDx=0;exitDy=0;" parent="WIyWlLk6GJQsqaUBKTNV-1" source="pPV86ePXEddxtqQ-xWxx-37" target="pPV86ePXEddxtqQ-xWxx-21" edge="1">
                    <mxGeometry relative="1" as="geometry">
                        <Array as="points">
                            <mxPoint x="180" y="1110"/>
                            <mxPoint x="414" y="1110"/>
                        </Array>
                    </mxGeometry>
                </mxCell>
                <mxCell id="pPV86ePXEddxtqQ-xWxx-37" value="print error" style="rounded=0;whiteSpace=wrap;html=1;fillColor=#647687;strokeColor=#314354;fontColor=#ffffff;" parent="WIyWlLk6GJQsqaUBKTNV-1" vertex="1">
                    <mxGeometry x="120" y="790" width="120" height="60" as="geometry"/>
                </mxCell>
                <mxCell id="pPV86ePXEddxtqQ-xWxx-52" style="edgeStyle=orthogonalEdgeStyle;rounded=0;orthogonalLoop=1;jettySize=auto;html=1;exitX=0.5;exitY=1;exitDx=0;exitDy=0;" parent="WIyWlLk6GJQsqaUBKTNV-1" source="pPV86ePXEddxtqQ-xWxx-38" target="pPV86ePXEddxtqQ-xWxx-21" edge="1">
                    <mxGeometry relative="1" as="geometry">
                        <Array as="points">
                            <mxPoint x="500" y="1110"/>
                            <mxPoint x="414" y="1110"/>
                        </Array>
                    </mxGeometry>
                </mxCell>
                <mxCell id="pPV86ePXEddxtqQ-xWxx-38" value="sett baneleie 2000&lt;br&gt;sett deltakerpris 400" style="rounded=0;whiteSpace=wrap;html=1;fillColor=#647687;strokeColor=#314354;fontColor=#ffffff;" parent="WIyWlLk6GJQsqaUBKTNV-1" vertex="1">
                    <mxGeometry x="440" y="930" width="120" height="60" as="geometry"/>
                </mxCell>
                <mxCell id="pPV86ePXEddxtqQ-xWxx-53" style="edgeStyle=orthogonalEdgeStyle;rounded=0;orthogonalLoop=1;jettySize=auto;html=1;exitX=0.5;exitY=1;exitDx=0;exitDy=0;" parent="WIyWlLk6GJQsqaUBKTNV-1" source="pPV86ePXEddxtqQ-xWxx-39" target="pPV86ePXEddxtqQ-xWxx-21" edge="1">
                    <mxGeometry relative="1" as="geometry"/>
                </mxCell>
                <mxCell id="pPV86ePXEddxtqQ-xWxx-39" value="sett baneleie 3500&lt;br&gt;sett deltakerpris 350" style="rounded=0;whiteSpace=wrap;html=1;fillColor=#647687;strokeColor=#314354;fontColor=#ffffff;" parent="WIyWlLk6GJQsqaUBKTNV-1" vertex="1">
                    <mxGeometry x="560" y="1010" width="120" height="60" as="geometry"/>
                </mxCell>
                <mxCell id="pPV86ePXEddxtqQ-xWxx-54" style="edgeStyle=orthogonalEdgeStyle;rounded=0;orthogonalLoop=1;jettySize=auto;html=1;exitX=0.5;exitY=1;exitDx=0;exitDy=0;" parent="WIyWlLk6GJQsqaUBKTNV-1" source="pPV86ePXEddxtqQ-xWxx-40" target="pPV86ePXEddxtqQ-xWxx-21" edge="1">
                    <mxGeometry relative="1" as="geometry"/>
                </mxCell>
                <mxCell id="pPV86ePXEddxtqQ-xWxx-40" value="print error" style="shape=parallelogram;perimeter=parallelogramPerimeter;whiteSpace=wrap;html=1;fixedSize=1;fillColor=#647687;strokeColor=#314354;fontColor=#ffffff;" parent="WIyWlLk6GJQsqaUBKTNV-1" vertex="1">
                    <mxGeometry x="780" y="1010" width="120" height="60" as="geometry"/>
                </mxCell>
                <mxCell id="pPV86ePXEddxtqQ-xWxx-51" style="edgeStyle=orthogonalEdgeStyle;rounded=0;orthogonalLoop=1;jettySize=auto;html=1;exitX=0.5;exitY=1;exitDx=0;exitDy=0;" parent="WIyWlLk6GJQsqaUBKTNV-1" source="pPV86ePXEddxtqQ-xWxx-46" target="pPV86ePXEddxtqQ-xWxx-21" edge="1">
                    <mxGeometry relative="1" as="geometry"/>
                </mxCell>
                <mxCell id="pPV86ePXEddxtqQ-xWxx-46" value="sett baneleie 1000&lt;br&gt;sett deltakerpris 450" style="rounded=0;whiteSpace=wrap;html=1;fillColor=#647687;strokeColor=#314354;fontColor=#ffffff;" parent="WIyWlLk6GJQsqaUBKTNV-1" vertex="1">
                    <mxGeometry x="354" y="830" width="120" height="60" as="geometry"/>
                </mxCell>
                <mxCell id="pPV86ePXEddxtqQ-xWxx-56" value="true" style="text;html=1;strokeColor=#314354;fillColor=#647687;align=center;verticalAlign=middle;whiteSpace=wrap;rounded=0;fontColor=#ffffff;" parent="WIyWlLk6GJQsqaUBKTNV-1" vertex="1">
                    <mxGeometry x="240" y="710" width="40" height="20" as="geometry"/>
                </mxCell>
                <mxCell id="pPV86ePXEddxtqQ-xWxx-58" value="true" style="text;html=1;strokeColor=#314354;fillColor=#647687;align=center;verticalAlign=middle;whiteSpace=wrap;rounded=0;fontColor=#ffffff;" parent="WIyWlLk6GJQsqaUBKTNV-1" vertex="1">
                    <mxGeometry x="414" y="790" width="40" height="20" as="geometry"/>
                </mxCell>
                <mxCell id="pPV86ePXEddxtqQ-xWxx-59" value="true" style="text;html=1;strokeColor=#314354;fillColor=#647687;align=center;verticalAlign=middle;whiteSpace=wrap;rounded=0;fontColor=#ffffff;" parent="WIyWlLk6GJQsqaUBKTNV-1" vertex="1">
                    <mxGeometry x="620" y="950" width="40" height="20" as="geometry"/>
                </mxCell>
                <mxCell id="pPV86ePXEddxtqQ-xWxx-60" value="true" style="text;html=1;strokeColor=#314354;fillColor=#647687;align=center;verticalAlign=middle;whiteSpace=wrap;rounded=0;fontColor=#ffffff;" parent="WIyWlLk6GJQsqaUBKTNV-1" vertex="1">
                    <mxGeometry x="500" y="870" width="40" height="20" as="geometry"/>
                </mxCell>
                <mxCell id="pPV86ePXEddxtqQ-xWxx-61" value="false" style="text;html=1;strokeColor=#314354;fillColor=#647687;align=center;verticalAlign=middle;whiteSpace=wrap;rounded=0;fontColor=#ffffff;" parent="WIyWlLk6GJQsqaUBKTNV-1" vertex="1">
                    <mxGeometry x="480" y="710" width="40" height="20" as="geometry"/>
                </mxCell>
                <mxCell id="pPV86ePXEddxtqQ-xWxx-63" value="false" style="text;html=1;strokeColor=#314354;fillColor=#647687;align=center;verticalAlign=middle;whiteSpace=wrap;rounded=0;fontColor=#ffffff;" parent="WIyWlLk6GJQsqaUBKTNV-1" vertex="1">
                    <mxGeometry x="580" y="790" width="40" height="20" as="geometry"/>
                </mxCell>
                <mxCell id="pPV86ePXEddxtqQ-xWxx-64" value="false" style="text;html=1;strokeColor=#314354;fillColor=#647687;align=center;verticalAlign=middle;whiteSpace=wrap;rounded=0;fontColor=#ffffff;" parent="WIyWlLk6GJQsqaUBKTNV-1" vertex="1">
                    <mxGeometry x="680" y="870" width="40" height="20" as="geometry"/>
                </mxCell>
                <mxCell id="pPV86ePXEddxtqQ-xWxx-66" value="false" style="text;html=1;strokeColor=#314354;fillColor=#647687;align=center;verticalAlign=middle;whiteSpace=wrap;rounded=0;fontColor=#ffffff;" parent="WIyWlLk6GJQsqaUBKTNV-1" vertex="1">
                    <mxGeometry x="820" y="950" width="40" height="20" as="geometry"/>
                </mxCell>
                <mxCell id="pPV86ePXEddxtqQ-xWxx-77" style="edgeStyle=orthogonalEdgeStyle;rounded=0;orthogonalLoop=1;jettySize=auto;html=1;exitX=0;exitY=0.5;exitDx=0;exitDy=0;entryX=0.567;entryY=-0.017;entryDx=0;entryDy=0;fillColor=#e3c800;strokeColor=#B09500;entryPerimeter=0;" parent="WIyWlLk6GJQsqaUBKTNV-1" source="pPV86ePXEddxtqQ-xWxx-70" target="pPV86ePXEddxtqQ-xWxx-109" edge="1">
                    <mxGeometry relative="1" as="geometry">
                        <mxPoint x="220" y="1350" as="targetPoint"/>
                    </mxGeometry>
                </mxCell>
                <mxCell id="pPV86ePXEddxtqQ-xWxx-78" style="edgeStyle=orthogonalEdgeStyle;rounded=0;orthogonalLoop=1;jettySize=auto;html=1;exitX=1;exitY=0.5;exitDx=0;exitDy=0;entryX=0.5;entryY=0;entryDx=0;entryDy=0;fillColor=#e3c800;strokeColor=#B09500;" parent="WIyWlLk6GJQsqaUBKTNV-1" source="pPV86ePXEddxtqQ-xWxx-70" target="pPV86ePXEddxtqQ-xWxx-108" edge="1">
                    <mxGeometry relative="1" as="geometry">
                        <mxPoint x="580" y="1350" as="targetPoint"/>
                    </mxGeometry>
                </mxCell>
                <mxCell id="pPV86ePXEddxtqQ-xWxx-70" value="har ny strategi mer $ enn gammel?" style="rhombus;whiteSpace=wrap;html=1;fillColor=#e3c800;strokeColor=#B09500;fontColor=#ffffff;" parent="WIyWlLk6GJQsqaUBKTNV-1" vertex="1">
                    <mxGeometry x="346" y="1250" width="136" height="130" as="geometry"/>
                </mxCell>
                <mxCell id="pPV86ePXEddxtqQ-xWxx-82" style="edgeStyle=orthogonalEdgeStyle;rounded=0;orthogonalLoop=1;jettySize=auto;html=1;exitX=1;exitY=0.5;exitDx=0;exitDy=0;entryX=0.5;entryY=0;entryDx=0;entryDy=0;fillColor=#d80073;strokeColor=#A50040;" parent="WIyWlLk6GJQsqaUBKTNV-1" source="pPV86ePXEddxtqQ-xWxx-84" target="pPV86ePXEddxtqQ-xWxx-87" edge="1">
                    <mxGeometry relative="1" as="geometry"/>
                </mxCell>
                <mxCell id="pPV86ePXEddxtqQ-xWxx-83" style="edgeStyle=orthogonalEdgeStyle;rounded=0;orthogonalLoop=1;jettySize=auto;html=1;exitX=0;exitY=0.5;exitDx=0;exitDy=0;entryX=0.5;entryY=0;entryDx=0;entryDy=0;fillColor=#d80073;strokeColor=#A50040;" parent="WIyWlLk6GJQsqaUBKTNV-1" source="pPV86ePXEddxtqQ-xWxx-84" target="pPV86ePXEddxtqQ-xWxx-90" edge="1">
                    <mxGeometry relative="1" as="geometry"/>
                </mxCell>
                <mxCell id="pPV86ePXEddxtqQ-xWxx-84" value="deltakere &amp;gt;= 20" style="rhombus;whiteSpace=wrap;html=1;fillColor=#d80073;strokeColor=#A50040;fontColor=#ffffff;" parent="WIyWlLk6GJQsqaUBKTNV-1" vertex="1">
                    <mxGeometry x="374" y="280" width="80" height="80" as="geometry"/>
                </mxCell>
                <mxCell id="pPV86ePXEddxtqQ-xWxx-86" style="edgeStyle=orthogonalEdgeStyle;rounded=0;orthogonalLoop=1;jettySize=auto;html=1;exitX=1;exitY=0.5;exitDx=0;exitDy=0;entryX=0.5;entryY=0;entryDx=0;entryDy=0;fillColor=#d80073;strokeColor=#A50040;" parent="WIyWlLk6GJQsqaUBKTNV-1" source="pPV86ePXEddxtqQ-xWxx-87" target="pPV86ePXEddxtqQ-xWxx-89" edge="1">
                    <mxGeometry relative="1" as="geometry"/>
                </mxCell>
                <mxCell id="pPV86ePXEddxtqQ-xWxx-102" style="edgeStyle=orthogonalEdgeStyle;rounded=0;orthogonalLoop=1;jettySize=auto;html=1;exitX=0;exitY=0.5;exitDx=0;exitDy=0;entryX=0.5;entryY=0;entryDx=0;entryDy=0;fillColor=#d80073;strokeColor=#A50040;" parent="WIyWlLk6GJQsqaUBKTNV-1" source="pPV86ePXEddxtqQ-xWxx-87" target="pPV86ePXEddxtqQ-xWxx-88" edge="1">
                    <mxGeometry relative="1" as="geometry"/>
                </mxCell>
                <mxCell id="pPV86ePXEddxtqQ-xWxx-87" value="deltakere &amp;gt;= 10" style="rhombus;whiteSpace=wrap;html=1;fillColor=#d80073;strokeColor=#A50040;fontColor=#ffffff;" parent="WIyWlLk6GJQsqaUBKTNV-1" vertex="1">
                    <mxGeometry x="480" y="360" width="80" height="80" as="geometry"/>
                </mxCell>
                <mxCell id="pPV86ePXEddxtqQ-xWxx-99" style="edgeStyle=orthogonalEdgeStyle;rounded=0;orthogonalLoop=1;jettySize=auto;html=1;exitX=0.5;exitY=1;exitDx=0;exitDy=0;fillColor=#76608a;strokeColor=#432D57;" parent="WIyWlLk6GJQsqaUBKTNV-1" source="pPV86ePXEddxtqQ-xWxx-88" target="pPV86ePXEddxtqQ-xWxx-97" edge="1">
                    <mxGeometry relative="1" as="geometry"/>
                </mxCell>
                <mxCell id="pPV86ePXEddxtqQ-xWxx-88" value="endre kost per pers til 380" style="rounded=0;whiteSpace=wrap;html=1;fillColor=#d80073;strokeColor=#A50040;fontColor=#ffffff;" parent="WIyWlLk6GJQsqaUBKTNV-1" vertex="1">
                    <mxGeometry x="354" y="440" width="120" height="60" as="geometry"/>
                </mxCell>
                <mxCell id="pPV86ePXEddxtqQ-xWxx-100" style="edgeStyle=orthogonalEdgeStyle;rounded=0;orthogonalLoop=1;jettySize=auto;html=1;exitX=0.5;exitY=1;exitDx=0;exitDy=0;fillColor=#76608a;strokeColor=#432D57;" parent="WIyWlLk6GJQsqaUBKTNV-1" source="pPV86ePXEddxtqQ-xWxx-89" target="pPV86ePXEddxtqQ-xWxx-97" edge="1">
                    <mxGeometry relative="1" as="geometry">
                        <Array as="points">
                            <mxPoint x="620" y="540"/>
                            <mxPoint x="414" y="540"/>
                        </Array>
                    </mxGeometry>
                </mxCell>
                <mxCell id="pPV86ePXEddxtqQ-xWxx-89" value="endre kost per pers til 420" style="rounded=0;whiteSpace=wrap;html=1;fillColor=#d80073;strokeColor=#A50040;fontColor=#ffffff;" parent="WIyWlLk6GJQsqaUBKTNV-1" vertex="1">
                    <mxGeometry x="560" y="440" width="120" height="60" as="geometry"/>
                </mxCell>
                <mxCell id="pPV86ePXEddxtqQ-xWxx-98" style="edgeStyle=orthogonalEdgeStyle;rounded=0;orthogonalLoop=1;jettySize=auto;html=1;exitX=0.5;exitY=1;exitDx=0;exitDy=0;fillColor=#76608a;strokeColor=#432D57;" parent="WIyWlLk6GJQsqaUBKTNV-1" source="pPV86ePXEddxtqQ-xWxx-90" target="pPV86ePXEddxtqQ-xWxx-97" edge="1">
                    <mxGeometry relative="1" as="geometry">
                        <Array as="points">
                            <mxPoint x="260" y="540"/>
                            <mxPoint x="414" y="540"/>
                        </Array>
                    </mxGeometry>
                </mxCell>
                <mxCell id="pPV86ePXEddxtqQ-xWxx-90" value="endre kost per pers til 350" style="rounded=0;whiteSpace=wrap;html=1;fillColor=#d80073;strokeColor=#A50040;fontColor=#ffffff;" parent="WIyWlLk6GJQsqaUBKTNV-1" vertex="1">
                    <mxGeometry x="200" y="360" width="120" height="60" as="geometry"/>
                </mxCell>
                <mxCell id="pPV86ePXEddxtqQ-xWxx-91" value="True" style="text;html=1;strokeColor=#A50040;fillColor=#d80073;align=center;verticalAlign=middle;whiteSpace=wrap;rounded=0;fontColor=#ffffff;" parent="WIyWlLk6GJQsqaUBKTNV-1" vertex="1">
                    <mxGeometry x="280" y="300" width="40" height="20" as="geometry"/>
                </mxCell>
                <mxCell id="pPV86ePXEddxtqQ-xWxx-92" value="True" style="text;html=1;strokeColor=#A50040;fillColor=#d80073;align=center;verticalAlign=middle;whiteSpace=wrap;rounded=0;fontColor=#ffffff;" parent="WIyWlLk6GJQsqaUBKTNV-1" vertex="1">
                    <mxGeometry x="434" y="380" width="40" height="20" as="geometry"/>
                </mxCell>
                <mxCell id="pPV86ePXEddxtqQ-xWxx-93" value="False" style="text;html=1;strokeColor=#A50040;fillColor=#d80073;align=center;verticalAlign=middle;whiteSpace=wrap;rounded=0;fontColor=#ffffff;" parent="WIyWlLk6GJQsqaUBKTNV-1" vertex="1">
                    <mxGeometry x="474" y="300" width="40" height="20" as="geometry"/>
                </mxCell>
                <mxCell id="pPV86ePXEddxtqQ-xWxx-94" value="False" style="text;html=1;strokeColor=#A50040;fillColor=#d80073;align=center;verticalAlign=middle;whiteSpace=wrap;rounded=0;fontColor=#ffffff;" parent="WIyWlLk6GJQsqaUBKTNV-1" vertex="1">
                    <mxGeometry x="580" y="380" width="40" height="20" as="geometry"/>
                </mxCell>
                <mxCell id="pPV86ePXEddxtqQ-xWxx-101" style="edgeStyle=orthogonalEdgeStyle;rounded=0;orthogonalLoop=1;jettySize=auto;html=1;exitX=0.5;exitY=1;exitDx=0;exitDy=0;" parent="WIyWlLk6GJQsqaUBKTNV-1" source="pPV86ePXEddxtqQ-xWxx-97" target="pPV86ePXEddxtqQ-xWxx-30" edge="1">
                    <mxGeometry relative="1" as="geometry"/>
                </mxCell>
                <mxCell id="pPV86ePXEddxtqQ-xWxx-97" value="beregne sum og tilordne sumpris som strategivariabel" style="rounded=0;whiteSpace=wrap;html=1;" parent="WIyWlLk6GJQsqaUBKTNV-1" vertex="1">
                    <mxGeometry x="354" y="570" width="120" height="60" as="geometry"/>
                </mxCell>
                <mxCell id="pPV86ePXEddxtqQ-xWxx-112" style="edgeStyle=orthogonalEdgeStyle;rounded=0;orthogonalLoop=1;jettySize=auto;html=1;exitX=1;exitY=0.5;exitDx=0;exitDy=0;entryX=0.5;entryY=0;entryDx=0;entryDy=0;fillColor=#e3c800;strokeColor=#B09500;" parent="WIyWlLk6GJQsqaUBKTNV-1" source="pPV86ePXEddxtqQ-xWxx-108" target="pPV86ePXEddxtqQ-xWxx-111" edge="1">
                    <mxGeometry relative="1" as="geometry"/>
                </mxCell>
                <mxCell id="pPV86ePXEddxtqQ-xWxx-115" style="edgeStyle=orthogonalEdgeStyle;rounded=0;orthogonalLoop=1;jettySize=auto;html=1;exitX=0;exitY=0.5;exitDx=0;exitDy=0;entryX=0.5;entryY=0;entryDx=0;entryDy=0;fillColor=#e3c800;strokeColor=#B09500;" parent="WIyWlLk6GJQsqaUBKTNV-1" source="pPV86ePXEddxtqQ-xWxx-108" target="pPV86ePXEddxtqQ-xWxx-110" edge="1">
                    <mxGeometry relative="1" as="geometry"/>
                </mxCell>
                <mxCell id="pPV86ePXEddxtqQ-xWxx-108" value="er den 0?" style="rhombus;whiteSpace=wrap;html=1;fillColor=#e3c800;strokeColor=#B09500;fontColor=#ffffff;" parent="WIyWlLk6GJQsqaUBKTNV-1" vertex="1">
                    <mxGeometry x="652" y="1340" width="136" height="130" as="geometry"/>
                </mxCell>
                <mxCell id="pPV86ePXEddxtqQ-xWxx-118" style="edgeStyle=orthogonalEdgeStyle;rounded=0;orthogonalLoop=1;jettySize=auto;html=1;exitX=0.5;exitY=1;exitDx=0;exitDy=0;" parent="WIyWlLk6GJQsqaUBKTNV-1" source="pPV86ePXEddxtqQ-xWxx-109" target="pPV86ePXEddxtqQ-xWxx-26" edge="1">
                    <mxGeometry relative="1" as="geometry"/>
                </mxCell>
                <mxCell id="pPV86ePXEddxtqQ-xWxx-109" value="du tjente X på valg" style="shape=parallelogram;perimeter=parallelogramPerimeter;whiteSpace=wrap;html=1;fixedSize=1;fillColor=#e3c800;strokeColor=#B09500;fontColor=#ffffff;" parent="WIyWlLk6GJQsqaUBKTNV-1" vertex="1">
                    <mxGeometry x="80" y="1340" width="120" height="60" as="geometry"/>
                </mxCell>
                <mxCell id="pPV86ePXEddxtqQ-xWxx-116" style="edgeStyle=orthogonalEdgeStyle;rounded=0;orthogonalLoop=1;jettySize=auto;html=1;exitX=0.5;exitY=1;exitDx=0;exitDy=0;" parent="WIyWlLk6GJQsqaUBKTNV-1" source="pPV86ePXEddxtqQ-xWxx-110" target="pPV86ePXEddxtqQ-xWxx-26" edge="1">
                    <mxGeometry relative="1" as="geometry"/>
                </mxCell>
                <mxCell id="pPV86ePXEddxtqQ-xWxx-110" value="print error" style="shape=parallelogram;perimeter=parallelogramPerimeter;whiteSpace=wrap;html=1;fixedSize=1;fillColor=#e3c800;strokeColor=#B09500;fontColor=#ffffff;" parent="WIyWlLk6GJQsqaUBKTNV-1" vertex="1">
                    <mxGeometry x="520" y="1440" width="120" height="60" as="geometry"/>
                </mxCell>
                <mxCell id="pPV86ePXEddxtqQ-xWxx-117" style="edgeStyle=orthogonalEdgeStyle;rounded=0;orthogonalLoop=1;jettySize=auto;html=1;exitX=0.5;exitY=1;exitDx=0;exitDy=0;" parent="WIyWlLk6GJQsqaUBKTNV-1" source="pPV86ePXEddxtqQ-xWxx-111" target="pPV86ePXEddxtqQ-xWxx-26" edge="1">
                    <mxGeometry relative="1" as="geometry"/>
                </mxCell>
                <mxCell id="pPV86ePXEddxtqQ-xWxx-111" value="du tapte X på valg" style="shape=parallelogram;perimeter=parallelogramPerimeter;whiteSpace=wrap;html=1;fixedSize=1;fillColor=#e3c800;strokeColor=#B09500;fontColor=#ffffff;" parent="WIyWlLk6GJQsqaUBKTNV-1" vertex="1">
                    <mxGeometry x="780" y="1440" width="120" height="60" as="geometry"/>
                </mxCell>
            </root>
        </mxGraphModel>
    </diagram>
</mxfile>